<?xml version="1.0" standalone="no"?>
<!DOCTYPE svg PUBLIC "-//W3C//DTD SVG 20010904//EN"
 "http://www.w3.org/TR/2001/REC-SVG-20010904/DTD/svg10.dtd">
<svg version="1.0" xmlns="http://www.w3.org/2000/svg"
 width="600.000000pt" height="600.000000pt" viewBox="0 0 600.000000 600.000000"
 preserveAspectRatio="xMidYMid meet">

<g transform="translate(0.000000,600.000000) scale(0.100000,-0.100000)"
fill="#000000" stroke="none">
<path d="M0 3005 l0 -645 3000 0 3000 0 0 645 0 645 -3000 0 -3000 0 0 -645z
m5057 593 c5 -7 9 -26 9 -43 -1 -16 3 -33 8 -36 9 -7 13 -49 22 -229 2 -58 5
-112 6 -120 0 -8 0 -28 -1 -45 -1 -16 0 -43 2 -58 l4 -29 -56 7 c-58 7 -94 31
-68 47 9 6 8 8 -3 8 -11 1 -10 4 4 15 20 15 20 15 0 15 -15 0 -16 2 -5 9 10 6
12 20 8 44 -3 23 -1 38 6 41 7 2 5 5 -5 5 -17 1 -19 16 -5 39 5 7 3 12 -5 13
-9 0 -10 2 -1 5 8 4 9 13 3 30 -6 14 -6 24 -1 24 5 0 7 12 4 28 -2 15 -5 48
-5 75 0 26 -4 47 -8 47 -12 0 -1 60 17 91 18 31 53 39 70 17z m171 -27 c0 -3
0 -8 2 -11 5 -13 12 -69 13 -102 1 -21 4 -38 7 -38 3 0 6 -17 7 -37 5 -89 9
-119 16 -130 5 -7 4 -13 -1 -13 -5 0 -9 -20 -8 -45 0 -25 4 -45 9 -45 4 0 5
-6 0 -12 -13 -21 -14 -58 -2 -58 8 0 8 -4 -1 -15 -7 -8 -9 -15 -6 -15 4 0 2
-9 -4 -20 -9 -16 -8 -20 5 -20 10 0 13 -5 9 -12 -11 -17 -11 -258 -1 -258 5 0
5 -6 0 -12 -4 -7 -8 -29 -10 -48 -1 -19 -4 -55 -7 -80 -3 -25 -7 -69 -10 -99
-5 -59 -8 -64 -36 -68 -33 -5 -70 15 -70 37 0 11 5 20 10 20 7 0 7 7 0 20 -6
11 -8 25 -5 31 10 15 13 59 5 54 -9 -6 -7 66 3 82 4 6 1 14 -5 16 -8 3 -5 6 5
6 17 1 17 2 2 18 -16 16 -16 17 1 30 10 7 13 13 8 13 -5 0 -9 37 -9 85 0 50
-4 85 -10 85 -5 0 -1 7 9 15 20 15 20 15 0 16 -18 1 -18 2 0 6 15 4 16 7 5 15
-11 7 -11 11 -1 15 6 2 9 10 6 15 -5 8 5 9 30 5 22 -3 34 -2 31 4 -4 5 -18 9
-33 9 -19 0 -28 5 -29 18 -1 9 -3 26 -6 37 -2 11 0 26 6 33 6 8 6 12 -3 12
-10 0 -10 3 -1 14 7 8 8 17 3 20 -12 7 -21 76 -10 76 4 0 5 7 2 15 -4 10 0 15
12 16 18 0 17 1 -1 9 -11 5 -17 9 -13 9 4 1 3 12 -2 26 -8 21 -7 25 8 25 13 0
14 2 3 9 -7 5 -10 14 -7 20 4 6 2 11 -3 11 -15 0 -14 27 2 33 7 3 4 6 -6 6
-12 1 -15 5 -10 14 11 17 11 29 0 51 -6 13 -5 21 4 27 12 7 12 9 0 9 -9 0 -12
8 -9 25 3 14 1 25 -3 25 -5 0 -8 6 -6 13 3 19 69 25 89 9 10 -8 17 -17 16 -21z
m129 3 c18 -15 29 -32 26 -40 -3 -8 -1 -14 3 -14 5 0 10 -10 11 -22 0 -13 4
-39 6 -58 11 -66 19 -135 20 -170 1 -19 7 -38 12 -42 7 -5 7 -10 0 -15 -12
-10 -14 -63 -2 -63 4 0 6 -4 3 -8 -11 -18 -14 -62 -5 -62 6 0 7 -6 2 -12 -4
-7 -6 -24 -4 -37 3 -22 0 -23 -29 -18 -19 4 -29 3 -25 -3 3 -6 18 -10 33 -10
25 0 27 -3 26 -39 -1 -21 -4 -43 -8 -49 -3 -6 -3 -13 2 -16 6 -3 8 -131 2
-131 0 0 -3 -29 -5 -65 -5 -77 -11 -132 -21 -180 -4 -19 -6 -45 -5 -57 2 -18
-3 -21 -31 -21 -18 1 -40 -1 -48 -3 -20 -6 -21 60 0 85 14 18 13 19 -1 14 -13
-5 -15 0 -13 24 2 16 8 37 13 46 5 9 6 23 2 32 -14 26 -7 100 9 110 12 8 12
10 -5 10 -20 1 -20 1 -1 15 15 12 16 15 5 15 -21 0 -20 72 1 82 13 6 12 7 -2
7 -17 1 -19 16 -5 39 5 6 4 12 -1 12 -5 0 -8 10 -8 23 1 12 -2 31 -7 41 -8 17
-6 18 22 13 18 -4 31 -2 31 3 0 6 -6 11 -12 11 -7 1 -20 2 -27 3 -19 1 -19 49
0 72 13 16 12 17 -6 11 -20 -7 -20 -7 -1 8 11 8 15 15 10 15 -6 0 -10 16 -9
35 0 19 -4 35 -9 35 -6 0 -5 5 2 12 15 15 16 58 1 58 -8 0 -8 5 1 15 7 8 8 15
3 15 -6 0 -10 37 -11 85 0 46 -3 89 -7 95 -3 5 0 10 7 10 9 0 9 3 2 8 -6 4
-11 28 -11 55 -1 56 16 62 64 21z m-4478 -16 c4 -11 6 -34 4 -51 -2 -18 -5
-74 -7 -125 -2 -51 -6 -96 -9 -99 -3 -3 -3 -10 -1 -17 3 -7 0 -25 -5 -39 -7
-19 -7 -27 0 -27 6 0 8 -4 5 -9 -4 -5 -7 -34 -7 -64 l-2 -55 -36 5 c-59 9 -72
19 -61 48 5 13 6 27 1 29 -11 7 -1 59 13 68 7 5 6 8 -3 8 -9 0 -12 8 -9 25 3
14 2 25 -2 25 -16 0 3 40 19 41 14 1 13 2 -1 6 -10 2 -18 11 -18 18 0 8 8 19
18 24 11 7 13 10 3 11 -11 0 -11 3 0 17 12 15 12 16 -3 10 -15 -5 -17 -1 -12
36 13 108 19 127 40 127 8 0 14 4 14 9 0 16 52 -2 59 -21z m-162 10 c10 -18
10 -72 -1 -79 -5 -4 -10 -52 -11 -106 -1 -55 -5 -105 -9 -111 -4 -7 -2 -12 4
-12 7 0 8 -5 3 -12 -4 -7 -8 -42 -9 -78 -2 -73 -5 -76 -69 -62 -33 7 -40 12
-38 31 2 15 -1 20 -10 15 -9 -6 -9 -5 0 8 7 8 10 17 7 21 -3 3 -1 14 5 25 8
15 8 22 -2 25 -9 4 -8 8 3 16 10 7 11 11 3 11 -9 0 -10 7 -3 25 5 14 6 25 2
25 -4 0 0 5 8 10 13 9 13 10 0 10 -11 1 -10 4 4 15 19 14 19 15 2 15 -14 0
-16 3 -7 13 6 8 8 17 4 20 -3 4 -1 7 6 7 8 0 9 5 3 18 -6 10 -6 26 1 42 6 14
11 33 12 43 2 9 4 19 5 22 3 7 7 23 9 36 1 7 11 9 26 5 14 -4 25 -2 25 4 0 14
17 13 27 -2z m305 3 c9 0 17 -9 17 -18 0 -10 1 -49 2 -87 1 -48 -3 -71 -12
-77 -12 -7 -12 -9 0 -9 10 0 11 -3 2 -14 -9 -10 -9 -16 -1 -21 8 -5 8 -10 0
-20 -8 -9 -8 -15 0 -20 7 -4 7 -12 0 -26 -6 -10 -7 -19 -3 -19 10 0 9 -72 0
-87 -4 -6 -1 -14 5 -17 11 -5 11 -7 0 -12 -6 -3 -9 -10 -6 -16 4 -6 9 -25 11
-44 4 -33 3 -34 -29 -36 l-33 -1 33 -4 c30 -4 48 -33 20 -33 -10 0 -10 -2 -1
-8 8 -5 11 -26 8 -57 -8 -103 -10 -177 -4 -181 8 -5 5 -57 -5 -72 -4 -7 -3
-12 2 -12 5 0 8 -45 7 -100 -2 -77 1 -102 12 -108 17 -10 7 -40 -15 -44 -9 -2
-36 1 -60 7 -41 9 -43 11 -41 45 2 19 7 41 13 48 7 9 5 12 -5 10 -10 -2 -14 8
-14 35 1 20 -4 37 -10 37 -5 0 -3 5 5 10 12 8 12 10 1 10 -11 0 -11 3 -1 15 7
8 9 15 4 15 -5 0 -2 5 6 10 13 8 13 10 -1 10 -24 0 -31 28 -11 39 15 9 15 10
-3 11 l-20 1 20 9 c14 6 15 9 5 10 -12 0 -10 4 5 17 18 14 18 15 1 9 -14 -5
-17 -2 -12 9 3 8 0 15 -7 15 -7 0 -3 7 7 15 11 8 15 15 10 15 -10 0 -14 14
-15 55 0 11 8 26 18 33 17 13 17 14 -3 8 -19 -6 -21 -3 -20 29 0 19 5 35 9 35
5 0 5 5 2 10 -3 6 4 15 17 20 22 10 22 10 -4 5 -28 -5 -27 -8 -15 59 1 6 7 14
12 18 6 5 3 8 -6 8 -14 0 -16 6 -9 34 4 19 5 38 2 41 -4 3 0 10 8 15 9 6 10
10 3 10 -19 0 -13 90 7 91 13 0 13 1 0 7 -21 10 -23 31 -4 39 11 4 12 8 4 13
-12 8 -13 21 -6 95 2 27 9 51 15 53 6 2 8 8 5 13 -3 6 -3 20 0 33 5 22 9 23
78 17z m69 -143 c0 -13 2 -39 4 -58 2 -19 6 -68 8 -109 3 -41 10 -77 15 -80 5
-3 12 -36 14 -73 5 -67 5 -67 -21 -65 -25 2 -26 4 -23 63 2 48 0 63 -12 67
-13 5 -13 12 -4 38 9 25 8 34 0 37 -7 2 -9 9 -6 14 9 14 9 82 0 96 -3 6 -2 13
3 17 6 3 8 21 6 40 -3 20 0 35 5 35 6 0 10 -10 11 -22z m3845 -157 c3 -66 3
-121 0 -121 -34 0 -37 23 -21 160 1 14 3 40 4 59 2 73 12 17 17 -98z m-3799
-48 c-3 -10 -5 -4 -5 12 0 17 2 24 5 18 2 -7 2 -21 0 -30z m3775 -135 c2 -20
0 -34 -4 -32 -4 3 -8 24 -7 47 1 47 6 41 11 -15z m-4226 -11 c10 -10 11 -57 1
-57 -6 0 -6 -5 0 -12 5 -7 9 -75 8 -150 0 -76 4 -138 9 -138 5 0 4 -6 -1 -12
-5 -7 -8 -31 -7 -53 4 -75 12 -190 14 -190 1 0 3 -7 5 -16 2 -12 -6 -15 -36
-15 -21 1 -39 4 -39 9 0 4 -7 7 -16 7 -14 0 -14 3 -4 15 9 11 9 15 1 15 -7 0
-11 8 -10 18 1 9 0 19 -1 22 -1 3 -3 16 -5 30 -1 14 -6 33 -10 43 -5 12 -2 17
11 17 16 0 16 1 2 13 -20 15 -30 57 -15 57 8 0 7 4 -2 9 -7 5 -10 14 -6 20 4
7 2 18 -5 26 -8 9 -8 15 0 20 6 3 8 11 5 16 -4 5 0 9 7 9 10 0 10 2 0 8 -14
10 -12 62 3 62 6 0 6 3 -1 8 -6 4 -11 14 -12 22 -1 8 -3 32 -4 53 -2 20 1 37
6 37 4 0 3 7 -4 15 -9 11 -9 15 -1 15 7 0 9 4 6 10 -10 16 -13 80 -4 74 5 -3
9 -1 9 4 0 9 86 0 96 -11z m160 -15 c6 -4 11 -23 12 -42 3 -90 1 -193 -4 -201
-3 -5 -1 -9 4 -9 9 0 7 -59 -3 -68 -2 -3 0 -13 5 -23 8 -13 6 -20 -7 -28 -14
-8 -15 -10 -3 -11 11 0 15 -11 13 -47 0 -27 4 -51 10 -55 9 -6 9 -8 0 -8 -7 0
-10 -6 -8 -12 10 -28 12 -79 3 -84 -6 -4 -6 -9 2 -14 8 -5 7 -12 -5 -24 -12
-12 -21 -14 -29 -6 -7 5 -16 7 -19 4 -3 -3 -16 1 -29 10 -15 11 -17 16 -8 16
11 1 10 3 -3 11 -14 8 -16 14 -6 25 9 11 9 14 -1 14 -10 0 -10 3 0 15 10 12
10 15 -1 15 -11 0 -11 2 1 10 12 8 12 10 1 10 -9 0 -12 8 -9 25 3 14 0 25 -6
26 -6 0 -5 3 2 6 10 4 9 8 -5 19 -17 13 -17 13 2 14 11 0 16 4 10 8 -16 12
-19 183 -3 193 10 7 10 9 -2 9 -13 0 -13 1 0 10 8 5 10 10 4 10 -11 0 -10 57
1 68 2 3 0 13 -6 23 -6 12 -6 25 0 36 5 10 5 26 0 40 -8 22 -6 23 34 23 23 0
47 -4 53 -8z m-597 -14 c4 7 12 3 20 -11 9 -15 10 -18 1 -10 -7 6 -19 9 -26 6
-9 -3 -14 2 -13 13 0 13 2 14 6 5 4 -9 8 -10 12 -3z m181 -17 c0 -12 -2 -13
-8 -3 -5 7 -16 10 -25 6 -11 -4 -17 -1 -17 9 0 10 8 13 25 9 15 -2 25 -11 25
-21z m107 -8 c-3 -10 -5 -4 -5 12 0 17 2 24 5 18 2 -7 2 -21 0 -30z m-375 9
c-4 -10 -7 -11 -12 -2 -4 7 -13 9 -19 6 -6 -4 -11 -2 -11 3 0 6 11 10 24 9 16
-2 22 -7 18 -16z m948 -22 c0 -11 -2 -20 -4 -20 -2 0 -6 9 -9 20 -3 11 -1 20
4 20 5 0 9 -9 9 -20z m260 10 c0 -5 -10 -10 -22 -9 -22 0 -22 1 -3 9 11 5 21
9 23 9 1 1 2 -3 2 -9z m1070 0 c0 -5 -8 -10 -17 -10 -15 0 -16 2 -3 10 19 12
20 12 20 0z m2656 -1 c8 -13 12 -359 4 -359 -5 0 -10 -54 -13 -157 -1 -35 -4
-63 -7 -64 -3 -1 -18 -2 -35 -4 -16 -2 -37 -4 -45 -6 -8 -2 -14 2 -12 9 1 6
-5 12 -14 12 -12 0 -14 4 -7 13 6 6 11 55 11 107 0 52 3 114 5 138 3 23 2 42
-3 42 -4 0 -4 17 1 37 5 26 4 40 -4 45 -8 5 -8 8 -1 8 7 0 10 21 9 55 -1 33 3
55 9 55 6 0 4 5 -4 10 -13 9 -13 10 0 10 13 0 13 1 0 10 -8 5 -11 10 -6 10 5
0 3 6 -3 14 -9 11 -9 15 1 19 25 10 107 7 114 -4z m-3239 -5 c-3 -3 -12 -4
-19 -1 -8 3 -5 6 6 6 11 1 17 -2 13 -5z m-727 -171 c0 -49 0 -115 0 -148 0
-33 -2 -71 -6 -85 -3 -14 -7 -58 -8 -99 -2 -48 -8 -76 -17 -82 -7 -4 -15 -6
-17 -5 -7 7 -9 211 -2 241 4 18 3 40 -3 51 -7 13 -7 19 3 22 9 3 9 6 1 11 -6
4 -13 24 -14 44 -3 30 0 37 15 37 10 0 18 7 18 15 0 8 4 15 9 15 5 0 9 6 8 13
-1 28 3 57 8 57 3 0 5 -39 5 -87z m3760 63 c0 -3 -4 -8 -10 -11 -5 -3 -10 -1
-10 4 0 6 5 11 10 11 6 0 10 -2 10 -4z m25 -76 c12 0 25 -6 27 -12 4 -11 3
-103 -1 -103 -1 0 -3 -60 -5 -133 -2 -73 -6 -135 -9 -138 -9 -10 -28 103 -32
188 -2 46 -4 84 -5 86 -7 7 -4 28 5 34 7 5 7 8 0 8 -6 0 -11 27 -11 63 -1 34
1 50 3 35 3 -21 10 -28 28 -28z"/>
<path d="M5328 2733 c7 -3 16 -2 19 1 4 3 -2 6 -13 5 -11 0 -14 -3 -6 -6z"/>
</g>
</svg>
